Patient4_TMGait_0pt6_01_right_37_EMG.mot
version=1
nRows=17
nColumns=33
inDegrees=no
endheader
time	1LAddLong	2LGlutMax	3LGlutMed	4LIliopsoas	5LSemiMemb	6LBicFemLong	7LRecFem	8LVastMed	9LVastLat	10LGasMed	11LTibAnt	12lTibPost	13LPeroneusLong	14LSol	15LExtDigLong	16LFlexDigLong	17RAddLong	18RGlutMax	19RGlutMed	20RIliopsoas	21RSemiMemb	22RBicFemLong	23RRecFem	24RVastMed	25RVastLat	26RGasMed	27RTibAnt	28RTibPost	29RPeroneusLong	30RSol	31RExtDigLong	32RFlexDigLong
44.887	0.002899	-0.63065	0.08316	-0.000458	0.022888	0.020752	0.6102	0.02533	0.098572	0.06073	-0.011749	-0.002747	-0.030518	0.10025	-0.3508	-0.023193	-0.12039	-0.2507	-0.23392	0.002899	-0.58044	-0.25574	0.32349	0.17532	-0.11093	0.011139	0.023041	-0.016022	0.80276	-0.15732	-0.00351	-0.001984
44.888	-0.002136	-0.63355	0.069275	-0.00824	0.020599	0.018921	0.50552	0.023956	0.093536	0.066528	-0.063171	-0.003052	-0.054932	-0.002441	-0.097809	-0.019836	-0.10895	-0.15457	-0.27298	0.04837	-0.25879	-0.11841	0.48874	0.35843	-0.11688	0.022583	-0.087128	-0.016022	0.072327	-0.12558	-0.001068	0.002136
44.889	-0.004272	-0.6282	0.060272	0.004272	0.018463	0.015564	0.30518	0.025635	0.099335	0.052185	-0.11948	0.00885	-0.02533	-0.085297	0.27283	-0.007019	-0.097046	-0.18509	-1.2358	0.13351	0.38971	-0.093842	0.6459	0.16541	-0.12741	0.005341	-0.084381	-0.017242	-1.6701	-0.03418	-0.004425	-0.011444
44.89	-0.003357	-0.62073	0.05188	-0.00824	0.024261	0.0177	0.17853	0.019531	0.10849	0.09201	-0.025177	0.00473	-0.040894	-0.14862	0.35477	-0.010834	-0.077362	-0.48309	-1.4644	-0.059662	0.51575	-0.19791	0.59876	0.11459	-0.1976	-0.012054	0.056458	-0.023499	-0.56244	-0.030518	-0.00061	-0.012054
44.891	-0.002289	-0.5513	0.062408	0.000763	0.01709	0.007935	0.097504	0.018158	0.12589	0.14404	0.071411	0.012665	-0.097961	-0.21973	0.082092	-0.005035	-0.046082	-0.5835	0.023499	-0.14801	0.3009	-0.32471	0.32181	0.15182	-0.099487	-0.016174	0.14954	-0.016785	-0.39261	-0.041199	0.001984	-0.013275
44.892	-0.002899	-0.49606	0.072784	0.006866	0.016174	0.026703	0.12665	0.019226	0.14954	0.14206	0.12131	0.012817	-0.092468	-0.15274	-0.10849	-0.007629	0.029755	-0.54977	0.36346	-0.19226	0.29709	-0.4039	-0.042725	0.015259	0.49042	-0.021057	0.14496	-0.010834	-0.68329	-0.10651	0.000305	-0.013123
44.893	0.007477	-0.41473	0.081329	0.00824	0.018616	0.020752	0.1178	0.02243	0.17868	0.13748	0.025177	0.02182	-0.058899	-0.043945	0.4773	0.007172	0.06424	-0.63904	0.3566	-0.007935	0.29877	-0.44861	-0.084229	0.017853	0.50064	-0.016022	0.093384	-0.016479	-0.45685	-0.11581	0.000763	-0.019531
44.894	-0.009308	-0.36209	0.077362	-0.014343	0.018005	0.005188	0.24719	0.017242	0.17975	0.12802	-0.1329	0.013428	-0.049591	0.009613	0.074615	0.016937	0.057831	-0.77759	-1.1168	0.10849	0.072479	-0.44144	-0.12116	0.086365	0.34729	-0.014038	0.097198	-0.007477	-0.052338	-0.098724	-0.001221	-0.0177
44.895	-0.003662	-0.22095	0.070953	-0.007172	0.018768	0.005951	0.35111	0.012512	0.19577	-0.030518	-0.21027	0.024414	-0.067139	0.1033	0.28046	0.011597	0.003357	-0.87051	-0.89432	0.018005	-0.48325	-0.33081	-0.12161	0.19196	0.058899	-0.011292	0.001831	-0.01358	0.56107	0.005341	0.000305	-0.018921
44.896	-0.00351	-0.095367	0.069275	-0.001068	0.016327	-0.001373	0.35248	0.012054	0.19562	-0.057068	-0.15335	0.015411	-0.083771	0.18143	0.32608	0.012512	-0.081635	-0.96146	-0.49774	0.02655	-0.81955	-0.38345	0.043335	0.24139	-0.17059	-0.009155	0.082092	-0.015411	0.35065	-0.046539	0.001831	-0.011902
44.897	0.005341	0.13092	0.079346	0.014801	0.014496	-0.011749	0.27832	0.016632	0.19974	0.00061	-0.10819	0.010529	-0.091553	0.17944	-0.003662	-0.001831	-0.084534	-1.0176	-0.037384	0.019073	-0.27451	-0.4773	0.20554	0.15091	-0.4953	-0.007477	0.20752	-0.014191	-0.052185	-0.11566	-0.001068	-0.020447
44.898	0.003815	0.34088	0.06073	-0.005493	0.015869	0.002899	0.27222	0.017548	0.18997	0.017548	-0.21927	-0.019073	-0.088654	0.18646	0.041046	-0.00351	-0.050964	-1.1244	0.47928	-0.007172	0.14221	-0.58624	0.25513	0.22232	-0.55145	0	-0.016479	-0.008698	-0.22736	-0.11368	0	-0.024109
44.899	0.001831	0.54581	0.054474	-0.016327	0.00824	0.005035	0.30762	0.022736	0.18066	0.032654	-0.052185	-0.011902	-0.11749	0.18692	-0.13321	-0.014191	-0.028229	-1.0178	0.37567	0.027466	0.14099	-0.61737	0.46051	0.20172	-0.20401	-0.00061	-0.16052	-0.014343	-0.33676	-0.0914	0.000305	-0.023956
44.9	0.005341	0.73212	0.090179	-0.024872	0.012817	-0.017242	0.2626	0.014954	0.15121	0.031891	0.16022	-0.008087	-0.15701	0.23331	-0.39795	-0.011749	-0.02121	-0.8818	0.51178	0.046539	-0.17334	-0.47363	0.50293	0.019531	-0.034027	-0.011444	-0.2507	-0.011444	0.039215	-0.097046	-0.002136	-0.018921
44.901	0.007019	0.89188	0.090027	0.024719	0.017853	-0.007477	0.2713	0.016174	0.15488	0.032806	0.32822	0.005035	-0.1265	0.18219	0.007477	-0.014496	-0.039978	-0.7753	-0.21164	0.1918	-0.37933	-0.37582	0.44723	0.033875	0.011444	-0.003967	-0.27878	-0.007935	0.33035	-0.11902	-0.002289	-0.024719
44.902	0.003357	0.99945	0.090942	0.003357	0.018005	-0.004578	0.25009	0.012817	0.12741	-0.002594	0.22247	0.003357	0.006104	0.13992	0.1355	-0.002289	-0.059052	-0.8403	-0.92041	0.20905	-0.057068	-0.45685	0.37308	0.016479	0.032196	0.000763	-0.16937	-0.008698	-0.3746	-0.16235	-0.001221	-0.023804
44.903	0.025635	1.097	0.068207	-0.007172	0.014191	0.009308	0.32577	0.00061	0.12802	0.02594	0.04837	-0.001373	-0.00946	0.071106	0.30441	-0.018616	-0.045776	-0.77621	-0.96619	0.14832	0.32028	-0.67429	0.24689	-0.061493	0.014343	-0.008545	-0.018463	-0.010223	0.12253	-0.080261	-0.001373	-0.022125
